<mxfile host="app.diagrams.net" modified="2023-09-21T07:55:37.394Z" agent="Mozilla/5.0 (Windows NT 10.0; Win64; x64) AppleWebKit/537.36 (KHTML, like Gecko) Chrome/117.0.0.0 Safari/537.36" etag="0Diq8B8Frvj9TBz_VFO_" version="21.8.0" type="github">
  <diagram id="0vgqdV-6Z7x-6JA71rlr" name="overview">
    <mxGraphModel dx="1434" dy="878" grid="1" gridSize="10" guides="1" tooltips="1" connect="1" arrows="1" fold="1" page="1" pageScale="1" pageWidth="827" pageHeight="1169" background="none" math="0" shadow="0">
      <root>
        <mxCell id="0" />
        <mxCell id="1" parent="0" />
        <mxCell id="aoulglnfV85GpiHtWq1O-92" value="Execution order" style="endArrow=classic;html=1;dashed=1;fontStyle=1" parent="1" edge="1">
          <mxGeometry x="-1" y="-20" width="50" height="50" relative="1" as="geometry">
            <mxPoint x="270" y="270" as="sourcePoint" />
            <mxPoint x="270" y="770" as="targetPoint" />
            <mxPoint x="20" y="-20" as="offset" />
          </mxGeometry>
        </mxCell>
        <mxCell id="aoulglnfV85GpiHtWq1O-81" value="SlaveUnderEvaluation loop" style="shape=umlFrame;whiteSpace=wrap;html=1;align=center;width=140;height=30;" parent="1" vertex="1">
          <mxGeometry x="80" y="530" width="540" height="210" as="geometry" />
        </mxCell>
        <mxCell id="aoulglnfV85GpiHtWq1O-91" value="Process messages until messageTimeStamp &amp;gt; currentSimulationTime+simulationStepSize" style="shape=umlFrame;whiteSpace=wrap;html=1;align=center;width=280;height=40;" parent="1" vertex="1">
          <mxGeometry x="90" y="590" width="520" height="133.24" as="geometry" />
        </mxCell>
        <mxCell id="aoulglnfV85GpiHtWq1O-80" value="Initialization Mode" style="shape=umlFrame;whiteSpace=wrap;html=1;align=center;width=110;height=27;" parent="1" vertex="1">
          <mxGeometry x="80" y="322.53" width="530" height="187.47" as="geometry" />
        </mxCell>
        <mxCell id="aoulglnfV85GpiHtWq1O-23" value="Activates DT" style="edgeStyle=orthogonalEdgeStyle;rounded=0;orthogonalLoop=1;jettySize=auto;html=1;endArrow=none;endFill=0;" parent="1" target="aoulglnfV85GpiHtWq1O-22" edge="1">
          <mxGeometry relative="1" as="geometry">
            <mxPoint x="270" y="293" as="sourcePoint" />
            <Array as="points">
              <mxPoint x="270" y="293" />
            </Array>
          </mxGeometry>
        </mxCell>
        <mxCell id="aoulglnfV85GpiHtWq1O-22" value="Actor" style="shape=umlActor;verticalLabelPosition=middle;labelBackgroundColor=#ffffff;verticalAlign=middle;html=1;outlineConnect=0;labelPosition=right;align=left;" parent="1" vertex="1">
          <mxGeometry x="530" y="263" width="21.3" height="50" as="geometry" />
        </mxCell>
        <mxCell id="aoulglnfV85GpiHtWq1O-31" value="EDB FMU" style="whiteSpace=wrap;html=1;" parent="1" vertex="1">
          <mxGeometry x="471.3" y="345.59000000000003" width="130" height="40" as="geometry" />
        </mxCell>
        <mxCell id="aoulglnfV85GpiHtWq1O-32" value="EDB FMU enters &lt;br&gt;FMI2EnterInitializationMode &lt;br&gt;and blocks since there &lt;br&gt;are no messages&amp;nbsp;" style="endArrow=none;html=1;entryX=0;entryY=0.5;entryDx=0;entryDy=0;" parent="1" target="aoulglnfV85GpiHtWq1O-31" edge="1">
          <mxGeometry width="50" height="50" relative="1" as="geometry">
            <mxPoint x="269.6666666666665" y="365.59000000000003" as="sourcePoint" />
            <mxPoint x="270" y="515.59" as="targetPoint" />
          </mxGeometry>
        </mxCell>
        <mxCell id="aoulglnfV85GpiHtWq1O-84" value="Publishes &lt;br&gt;message with &lt;br&gt;timestamp of WCT1" style="edgeStyle=none;rounded=0;orthogonalLoop=1;jettySize=auto;html=1;endArrow=none;endFill=0;" parent="1" source="aoulglnfV85GpiHtWq1O-36" edge="1">
          <mxGeometry relative="1" as="geometry">
            <mxPoint x="270" y="457.2850000000001" as="targetPoint" />
          </mxGeometry>
        </mxCell>
        <mxCell id="aoulglnfV85GpiHtWq1O-36" value="Server" style="points=[];aspect=fixed;html=1;align=center;shadow=0;dashed=0;image;image=img/lib/allied_telesis/computer_and_terminals/Server_Desktop.svg;labelPosition=center;verticalLabelPosition=top;verticalAlign=bottom;" parent="1" vertex="1">
          <mxGeometry x="100" y="436.96000000000004" width="32" height="40.57" as="geometry" />
        </mxCell>
        <mxCell id="aoulglnfV85GpiHtWq1O-37" value="EDB FMU" style="whiteSpace=wrap;html=1;" parent="1" vertex="1">
          <mxGeometry x="471.3" y="437.5300000000001" width="130" height="40" as="geometry" />
        </mxCell>
        <mxCell id="aoulglnfV85GpiHtWq1O-38" value="EDB FMU continues&lt;br&gt;WCT1 = Simulation Time 0" style="endArrow=none;html=1;entryX=0;entryY=0.5;entryDx=0;entryDy=0;strokeColor=#000000;" parent="1" target="aoulglnfV85GpiHtWq1O-37" edge="1">
          <mxGeometry width="50" height="50" relative="1" as="geometry">
            <mxPoint x="269.6666666666665" y="457.5300000000001" as="sourcePoint" />
            <mxPoint x="270" y="607.5300000000001" as="targetPoint" />
          </mxGeometry>
        </mxCell>
        <mxCell id="aoulglnfV85GpiHtWq1O-54" value="EDB FMU" style="whiteSpace=wrap;html=1;" parent="1" vertex="1">
          <mxGeometry x="471.3" y="540.0000000000001" width="130" height="40" as="geometry" />
        </mxCell>
        <mxCell id="aoulglnfV85GpiHtWq1O-55" value="EDB FMU &lt;br&gt;enters FMI2DoStep" style="endArrow=none;html=1;entryX=0;entryY=0.5;entryDx=0;entryDy=0;" parent="1" target="aoulglnfV85GpiHtWq1O-54" edge="1">
          <mxGeometry width="50" height="50" relative="1" as="geometry">
            <mxPoint x="269.6666666666665" y="560.0000000000001" as="sourcePoint" />
            <mxPoint x="270" y="710.0000000000001" as="targetPoint" />
          </mxGeometry>
        </mxCell>
        <mxCell id="aoulglnfV85GpiHtWq1O-71" value="EDB FMU" style="whiteSpace=wrap;html=1;" parent="1" vertex="1">
          <mxGeometry x="471.3" y="672.0000000000001" width="130" height="40" as="geometry" />
        </mxCell>
        <mxCell id="aoulglnfV85GpiHtWq1O-72" value="Override current state &lt;br&gt;with new values" style="endArrow=none;html=1;entryX=0;entryY=0.5;entryDx=0;entryDy=0;" parent="1" target="aoulglnfV85GpiHtWq1O-71" edge="1">
          <mxGeometry width="50" height="50" relative="1" as="geometry">
            <mxPoint x="269.6666666666665" y="692.0000000000001" as="sourcePoint" />
            <mxPoint x="270" y="842.0000000000001" as="targetPoint" />
          </mxGeometry>
        </mxCell>
        <mxCell id="aoulglnfV85GpiHtWq1O-88" value="Publishes&lt;br&gt;messages" style="edgeStyle=none;rounded=0;orthogonalLoop=1;jettySize=auto;html=1;endArrow=none;endFill=0;" parent="1" source="aoulglnfV85GpiHtWq1O-85" edge="1">
          <mxGeometry relative="1" as="geometry">
            <mxPoint x="270" y="691.7550000000001" as="targetPoint" />
          </mxGeometry>
        </mxCell>
        <mxCell id="aoulglnfV85GpiHtWq1O-85" value="Server" style="points=[];aspect=fixed;html=1;align=center;shadow=0;dashed=0;image;image=img/lib/allied_telesis/computer_and_terminals/Server_Desktop.svg;labelPosition=center;verticalLabelPosition=top;verticalAlign=bottom;" parent="1" vertex="1">
          <mxGeometry x="110" y="671.4300000000001" width="32" height="40.57" as="geometry" />
        </mxCell>
      </root>
    </mxGraphModel>
  </diagram>
</mxfile>
